<svg t="1716273446223" class="icon" viewBox="0 0 1140 1024" version="1.1" xmlns="http://www.w3.org/2000/svg" p-id="1527" width="200" height="200"><path d="M1090.995936 606.717788c0-173.489377-151.712303-252.720954-349.646677-252.720954-197.943135 0-591.551376 469.102975-438.419686 379.230378 25.951999-15.236505 88.199122-35.055351 117.436739 5.353367l-0.516937-0.109521s34.735551 29.645033 8.56451 172.324079c-6.001728 61.331531-2.746776 58.08534 10.001421 70.829156 33.714819 33.710438 165.717796 26.674835 203.112506 0 8.568891-26.766832 13.98797-51.16802 17.313015-72.92319 27.778803 7.841674 55.58389 12.139262 82.512813 12.139262 45.218861 0 87.187152-6.255816 125.36603-17.637196 3.206763 23.113225 8.83174 49.376263 18.123467 78.421124 22.464864 22.464864 155.379052 26.674835 182.06265 0 15.284694-56.333011 19.525331-202.323958 20.664345-289.594346 3.425804-55.732838 3.425804-55.732838 3.425804-85.312159z" fill="#D8D8E6" p-id="1528"></path><path d="M653.916781 202.836515c-120.306179-66.422048-316.378702-9.782379-388.999615 121.75185-42.717411 77.378488-46.984333 156.277121-18.793733 221.660914l-0.026285-0.008762s0.048189 0.091997 0.078855 0.135806c1.70414 3.93398 3.495897 7.854817 5.432221 11.688037 9.699144 24.918125 21.939165 83.305742-57.143463 116.880375 0 0-112.950776 40.413098-127.946335-55.978164 0 0-0.998828-42.97588-21.991735-21.996116-20.988526 20.988526 17.987662 165.941218 143.940722 165.941218 83.98477 0 157.262807-42.669222 202.131203-86.512505 118.40052 43.199302 274.966776 15.394214 340.022006-102.436799 72.616532-131.521087 43.602338-304.708188-76.703841-371.125854z" fill="#D8D8E6" p-id="1529"></path><path d="M46.984333 604.466044s1.86185 49.774918 37.618133 84.790842c47.60203 46.620725 146.174942 67.083552 292.143985-90.858282 0 0 100.63628 7.188932 156.553113-44.94287 59.180546-55.163331 55.697792-210.984847-67.972859-237.664063l140.983666-40.338624 134.793562 268.185261s-54.238977 202.135583-350.492175 132.752099c0 0-100.20696 101.026174-213.933141 88.391878-113.743705-12.643057-150.511957-139.498567-129.694284-160.316241z" fill="#6E6E96" opacity=".15" p-id="1530"></path><path d="M375.445347 414.044784a25.921333 25.921333 0 0 1-26.788737 25.395634c-14.46986-0.468748-25.921333-12.634295-25.597152-27.161106a25.908191 25.908191 0 0 1 26.801879-25.400016c14.46986 0.495033 25.921333 12.612391 25.58401 27.165488z" fill="#6E6E96" p-id="1531"></path><path d="M956.986541 122.233741c-89.789361-112.236701-246.697321-135.932576-350.457129-52.92035-63.968787 51.176782-127.096455 141.807261-145.092878 230.089619 54.764676-12.997904 116.288963 22.955516 143.08208 86.543171 19.985317 47.409273 15.464307 97.907027-7.81977 133.014948 111.145876 35.830756 260.247209 16.581417 334.979679-43.208064 103.764188-82.999084 115.092998-241.282623 25.308018-353.519324z" fill="#D8D8E6" p-id="1532"></path><path d="M877.308121 173.616421c-64.284206-80.353067-176.626047-97.315616-250.916054-37.885363-45.79713 36.636828-90.994088 101.525588-103.87809 164.736492 39.217133 6.619425 58.913316 19.932748 78.096943 65.462648 14.303389 33.942621 18.513361 38.152593 18.749925 91.738827 79.564519 25.654103 186.32081 11.86327 239.83257-30.937376 74.285626-59.425873 82.407673-172.749018 18.114706-253.115228z" fill="#E0A1CB" p-id="1533"></path><path d="M602.84514 201.066662c72.187212-57.743636 181.339813-41.258597 243.779692 36.812061 39.883018 49.862535 51.036595 112.779924 35.125444 166.786717 52.596168-62.531876 52.596168-159.746734-4.442155-231.044638-64.284206-80.353067-176.626047-97.315616-250.916054-37.885363-45.79713 36.636828-90.994088 101.525588-103.87809 164.736492 0.367989 0.061332 0.718455 0.144567 1.086444 0.205899 20.020364-39.6815 49.472641-75.801391 79.244719-99.611168z" fill="#CF94BB" p-id="1534"></path><path d="M109.187648 470.478554s28.926578 154.388986 195.253309 154.388986c0 0 62.505592 7.719011 62.505592-54.493065 0-46.296544-45.924174-30.030546-105.643562-38.599437-142.543239-20.432161-163.685094-126.921222-152.115339-61.296484z" fill="#F0F0FF" p-id="1535"></path><path d="M519.517493 922.724119c-3.995311 23.5075-23.384837 39.826068-43.304441 36.426549-19.919605-3.386377-15.516877-13.878449-11.521566-37.385949 3.99093-23.5075 6.067441-51.128593 25.995807-47.737835 19.915224 3.381996 32.825511 25.189736 28.8302 48.697235zM945.578876 922.649645c3.732462 15.862962-2.878201 30.989946-14.772137 33.789293-11.889555 2.794965-14.434814-3.894552-18.167276-19.766276-3.736843-15.854201-7.228359-34.89326 4.656816-37.692607 11.885175-2.786204 24.554516 7.806628 28.282597 23.66959z" fill="#D8D8E6" p-id="1536"></path><path d="M531.862654 319.0291c19.564758 10.365029 37.377187 26.22361 51.268779 46.467396a141.807261 141.807261 0 0 0-5.300796-13.567411c-8.893072-19.503427-25.645342-29.128096-45.967983-32.899985z m425.123887-196.795359c-39.335415-49.161603-95.983846-82.385769-150.954421-96.045177 43.965946 14.84223 83.748205 50.664225 115.890309 87.796086 87.660281 101.267119 76.59432 244.08635-24.712226 318.97653-64.507628 47.698408-185.73816 66.768133-287.951538 48.215345-3.088481 16.975692-3.61856 24.304809-12.559821 37.788985 111.132734 35.835137 254.635373 25.014503 329.376605-34.774978 103.759808-83.007846 120.700453-249.72447 30.911092-361.956791z" fill="#6E6E96" opacity=".15" p-id="1537"></path><path d="M926.360203 112.407553C839.685607 0.170852 692.266512-15.100699 592.107741 67.915909c-61.760852 51.172401-110.501895 133.378556-127.86748 221.665295 8.993831-2.207935 1.910039-2.970198 11.079103-2.457643 26.429509-70.228984 75.402736-136.64227 124.919186-177.681825 100.167532-83.012227 251.63889-59.316352 338.326628 52.920349a281.730768 281.730768 0 0 1 43.330726 80.120884c-6.728945-45.5299-25.080215-90.648003-55.535701-130.075416z" fill="#EFEFFF" opacity=".82" p-id="1538"></path><path d="M973.143018 577.339984c11.964029 15.740299-3.097242 101.950527-33.649106 125.182036-30.565006 23.240269-65.033327 29.312091-76.997356 13.580553-11.964029-15.74468 16.068861-34.363181 46.625106-57.590308 30.556245-23.240269 52.052946-96.91258 64.021356-81.172281z" fill="#D8D8E6" p-id="1539"></path><path d="M1086.60635 606.717788c0.004381-40.268531-9.493245-77.978661-25.90381-110.650844-0.937496 40.921274 11.731846 80.063933-4.030357 116.218871a442.721655 442.721655 0 0 1-4.634912 20.414638c-32.92627 92.273288-134.51757 163.150634-261.469458 182.036364-35.42334 9.659716-73.023949 14.872896-111.995756 14.872896-98.301301 0-187.924191-33.079599-255.647344-87.414955 40.776706 55.395515 59.973475 80.856862 120.021425 112.683546 32.466284 11.937744 44.390886 47.036903 44.390886 62.238361 0 67.083552-32.558281 84.059244-57.568403 87.213437 44.631831 0.21466 91.725685-8.441847 111.732906-22.718951 8.577653-26.793117 13.974827-51.176782 17.28673-72.940714 27.791945 7.850436 55.58389 12.156786 82.539098 12.156786 85.447965 0 159.418172-22.171348 217.652461-59.653676l-0.324181 0.280373s0.376751-0.275992 1.029493-0.735978c2.07651-1.344913 4.117974-2.685445 6.137534-4.061024 20.125504-12.638676 75.148649-41.324309 66.518426 29.474182-2.374406 19.516569-4.393966 36.2776-5.80021 50.396995-1.463195 14.526811-20.072934 53.647566-125.677069 53.647566-21.137474 0 108.806516 29.250759 141.750311 3.114765 21.080523-16.717223 44.903442 27.625474 44.903442-300.918775 0 0-0.091997 0.21028-0.258469 0.499414 8.13957-27.380148-0.652743-56.267299-0.652743-86.153277zM350.886449 540.77763c6.347813 39.729689-29.715127 46.427969-29.715126 46.427969-166.458155 40.881846-214.590265-136.5897-214.599027-136.624746-0.394274 2.422595 0.630839 8.61708 2.615352 19.897701 0 0 28.926578 154.388986 195.253309 154.388986 0 0 62.505592 7.719011 62.505592-54.493065 0-16.498182-5.85278-25.032026-16.0601-29.596845z" fill="#6E6E96" opacity=".15" p-id="1540"></path></svg>